<svg width="20" height="20" viewBox="0 0 20 20" fill="none" xmlns="http://www.w3.org/2000/svg">
<g clip-path="url(#clip0_10_729)">
<path d="M5.83333 0H3.33333C2.44928 0 1.60143 0.35119 0.976311 0.976311C0.35119 1.60143 0 2.44928 0 3.33333L0 5.83333C0 6.71739 0.35119 7.56524 0.976311 8.19036C1.60143 8.81548 2.44928 9.16667 3.33333 9.16667H5.83333C6.71739 9.16667 7.56524 8.81548 8.19036 8.19036C8.81548 7.56524 9.16667 6.71739 9.16667 5.83333V3.33333C9.16667 2.44928 8.81548 1.60143 8.19036 0.976311C7.56524 0.35119 6.71739 0 5.83333 0V0ZM7.5 5.83333C7.5 6.27536 7.32441 6.69928 7.01184 7.01184C6.69928 7.32441 6.27536 7.5 5.83333 7.5H3.33333C2.89131 7.5 2.46738 7.32441 2.15482 7.01184C1.84226 6.69928 1.66667 6.27536 1.66667 5.83333V3.33333C1.66667 2.89131 1.84226 2.46738 2.15482 2.15482C2.46738 1.84226 2.89131 1.66667 3.33333 1.66667H5.83333C6.27536 1.66667 6.69928 1.84226 7.01184 2.15482C7.32441 2.46738 7.5 2.89131 7.5 3.33333V5.83333Z" fill="#526675"/>
<path d="M16.6666 0H14.1666C13.2825 0 12.4347 0.35119 11.8096 0.976311C11.1844 1.60143 10.8333 2.44928 10.8333 3.33334V5.83334C10.8333 6.71739 11.1844 7.56524 11.8096 8.19036C12.4347 8.81548 13.2825 9.16667 14.1666 9.16667H16.6666C17.5506 9.16667 18.3985 8.81548 19.0236 8.19036C19.6487 7.56524 19.9999 6.71739 19.9999 5.83334V3.33334C19.9999 2.44928 19.6487 1.60143 19.0236 0.976311C18.3985 0.35119 17.5506 0 16.6666 0V0ZM18.3332 5.83334C18.3332 6.27537 18.1576 6.69929 17.8451 7.01185C17.5325 7.32441 17.1086 7.50001 16.6666 7.50001H14.1666C13.7246 7.50001 13.3006 7.32441 12.9881 7.01185C12.6755 6.69929 12.4999 6.27537 12.4999 5.83334V3.33334C12.4999 2.89131 12.6755 2.46738 12.9881 2.15482C13.3006 1.84226 13.7246 1.66667 14.1666 1.66667H16.6666C17.1086 1.66667 17.5325 1.84226 17.8451 2.15482C18.1576 2.46738 18.3332 2.89131 18.3332 3.33334V5.83334Z" fill="#526675"/>
<path d="M5.83333 10.8334H3.33333C2.44928 10.8334 1.60143 11.1846 0.976311 11.8097C0.35119 12.4348 0 13.2827 0 14.1667L0 16.6667C0 17.5508 0.35119 18.3986 0.976311 19.0237C1.60143 19.6489 2.44928 20.0001 3.33333 20.0001H5.83333C6.71739 20.0001 7.56524 19.6489 8.19036 19.0237C8.81548 18.3986 9.16667 17.5508 9.16667 16.6667V14.1667C9.16667 13.2827 8.81548 12.4348 8.19036 11.8097C7.56524 11.1846 6.71739 10.8334 5.83333 10.8334ZM7.5 16.6667C7.5 17.1087 7.32441 17.5327 7.01184 17.8452C6.69928 18.1578 6.27536 18.3334 5.83333 18.3334H3.33333C2.89131 18.3334 2.46738 18.1578 2.15482 17.8452C1.84226 17.5327 1.66667 17.1087 1.66667 16.6667V14.1667C1.66667 13.7247 1.84226 13.3008 2.15482 12.9882C2.46738 12.6756 2.89131 12.5 3.33333 12.5H5.83333C6.27536 12.5 6.69928 12.6756 7.01184 12.9882C7.32441 13.3008 7.5 13.7247 7.5 14.1667V16.6667Z" fill="#526675"/>
<path d="M16.6666 10.8334H14.1666C13.2825 10.8334 12.4347 11.1846 11.8096 11.8097C11.1844 12.4348 10.8333 13.2827 10.8333 14.1667V16.6667C10.8333 17.5508 11.1844 18.3986 11.8096 19.0237C12.4347 19.6489 13.2825 20.0001 14.1666 20.0001H16.6666C17.5506 20.0001 18.3985 19.6489 19.0236 19.0237C19.6487 18.3986 19.9999 17.5508 19.9999 16.6667V14.1667C19.9999 13.2827 19.6487 12.4348 19.0236 11.8097C18.3985 11.1846 17.5506 10.8334 16.6666 10.8334ZM18.3332 16.6667C18.3332 17.1087 18.1576 17.5327 17.8451 17.8452C17.5325 18.1578 17.1086 18.3334 16.6666 18.3334H14.1666C13.7246 18.3334 13.3006 18.1578 12.9881 17.8452C12.6755 17.5327 12.4999 17.1087 12.4999 16.6667V14.1667C12.4999 13.7247 12.6755 13.3008 12.9881 12.9882C13.3006 12.6756 13.7246 12.5 14.1666 12.5H16.6666C17.1086 12.5 17.5325 12.6756 17.8451 12.9882C18.1576 13.3008 18.3332 13.7247 18.3332 14.1667V16.6667Z" fill="#526675"/>
</g>
<defs>
<clipPath id="clip0_10_729">
<rect width="20" height="20" fill="white"/>
</clipPath>
</defs>
</svg>
