<svg width="21" height="21" viewBox="0 0 21 21" fill="none" xmlns="http://www.w3.org/2000/svg">
<g clip-path="url(#clip0_10_721)">
<path d="M20.9999 9.84125C20.8733 7.79377 20.1504 5.82807 18.9202 4.1865C17.69 2.54492 16.0063 1.29923 14.0766 0.602998C12.147 -0.0932379 10.0558 -0.209581 8.06088 0.268311C6.06593 0.746202 4.25444 1.79744 2.84972 3.29242C1.445 4.7874 0.508475 6.66077 0.155588 8.68158C-0.197298 10.7024 0.0488859 12.7823 0.863791 14.6649C1.6787 16.5475 3.0267 18.1504 4.74161 19.2762C6.45652 20.4019 8.46338 21.0012 10.5148 21.0001H16.6249C17.7849 20.999 18.897 20.5377 19.7172 19.7174C20.5374 18.8972 20.9987 17.7851 20.9999 16.6251V9.84125ZM19.2499 16.6251C19.2499 17.3213 18.9733 17.989 18.481 18.4813C17.9888 18.9736 17.3211 19.2501 16.6249 19.2501H10.5148C9.28008 19.2496 8.05938 18.9888 6.93225 18.4848C5.80512 17.9808 4.79688 17.2448 3.97326 16.325C3.14567 15.4056 2.5242 14.3199 2.15055 13.1407C1.77689 11.9615 1.65968 10.716 1.80676 9.48775C2.03902 7.55045 2.90943 5.74554 4.28078 4.35756C5.65212 2.96958 7.4464 2.07747 9.38076 1.82188C9.75809 1.77458 10.138 1.75062 10.5183 1.75013C12.5574 1.74456 14.5335 2.45704 16.0999 3.76263C17.0147 4.52295 17.7656 5.46114 18.3071 6.5203C18.8486 7.57947 19.1693 8.73756 19.2499 9.92438V16.6251Z" fill="#526675"/>
<path d="M6.99988 7.87487H10.4999C10.7319 7.87487 10.9545 7.78269 11.1186 7.61859C11.2827 7.4545 11.3749 7.23194 11.3749 6.99988C11.3749 6.76781 11.2827 6.54525 11.1186 6.38116C10.9545 6.21707 10.7319 6.12488 10.4999 6.12488H6.99988C6.76781 6.12488 6.54525 6.21707 6.38116 6.38116C6.21707 6.54525 6.12488 6.76781 6.12488 6.99988C6.12488 7.23194 6.21707 7.4545 6.38116 7.61859C6.54525 7.78269 6.76781 7.87487 6.99988 7.87487Z" fill="#526675"/>
<path d="M13.9999 9.62512H6.99988C6.76781 9.62512 6.54525 9.71731 6.38116 9.88141C6.21707 10.0455 6.12488 10.2681 6.12488 10.5001C6.12488 10.7322 6.21707 10.9548 6.38116 11.1188C6.54525 11.2829 6.76781 11.3751 6.99988 11.3751H13.9999C14.2319 11.3751 14.4545 11.2829 14.6186 11.1188C14.7827 10.9548 14.8749 10.7322 14.8749 10.5001C14.8749 10.2681 14.7827 10.0455 14.6186 9.88141C14.4545 9.71731 14.2319 9.62512 13.9999 9.62512Z" fill="#526675"/>
<path d="M13.9999 13.125H6.99988C6.76781 13.125 6.54525 13.2172 6.38116 13.3813C6.21707 13.5454 6.12488 13.7679 6.12488 14C6.12488 14.2321 6.21707 14.4546 6.38116 14.6187C6.54525 14.7828 6.76781 14.875 6.99988 14.875H13.9999C14.2319 14.875 14.4545 14.7828 14.6186 14.6187C14.7827 14.4546 14.8749 14.2321 14.8749 14C14.8749 13.7679 14.7827 13.5454 14.6186 13.3813C14.4545 13.2172 14.2319 13.125 13.9999 13.125Z" fill="#526675"/>
</g>
<defs>
<clipPath id="clip0_10_721">
<rect width="21" height="21" fill="white"/>
</clipPath>
</defs>
</svg>
