<svg width="15" height="15" viewBox="0 0 15 15" fill="none" xmlns="http://www.w3.org/2000/svg">
<path d="M7.5 15C3.36442 15 0 11.6356 0 7.5C0 3.36442 3.36442 0 7.5 0C11.6356 0 15 3.36442 15 7.5C15 11.6356 11.6356 15 7.5 15ZM7.5 0.499899C3.64022 0.499899 0.499899 3.64022 0.499899 7.5C0.499899 11.3598 3.64022 14.5001 7.5 14.5001C11.3598 14.5001 14.5001 11.3598 14.5001 7.5C14.5001 3.64022 11.3598 0.499899 7.5 0.499899ZM8.33528 1.15948V1.90403C9.25084 2.03894 10.119 2.39773 10.8626 2.94859L11.3885 2.42359C10.5191 1.75645 9.47419 1.30796 8.33528 1.15948ZM6.66079 1.16159C5.52248 1.31099 4.47853 1.76038 3.60998 2.42722L4.13256 2.95222H4.13498C4.8629 2.4127 5.72419 2.04314 6.66079 1.90373V1.16159ZM7.03125 2.67883V5.18498C6.72762 5.24637 6.44395 5.36462 6.19446 5.53034L4.42167 3.75847L3.75847 4.42167L5.53276 6.19597C5.36734 6.44486 5.24698 6.72792 5.18589 7.03125H2.67883V7.96875H5.18589C5.24698 8.27177 5.36764 8.55272 5.53276 8.80161L3.75847 10.5765L4.42167 11.2397L6.19446 9.46694C6.44831 9.63562 6.7325 9.75342 7.03125 9.81381V12.3209H7.96875V9.81381C8.27268 9.75242 8.55454 9.63054 8.80403 9.46452L10.5783 11.2394L11.2415 10.5762L9.46724 8.80131C9.63236 8.55242 9.75363 8.27147 9.81502 7.96845H12.3212V7.03095H9.81502C9.75393 6.72792 9.63266 6.44486 9.46724 6.19566L11.2415 4.42137L10.5783 3.75817L8.80403 5.53246C8.55454 5.36643 8.27268 5.24607 7.96875 5.18468V2.67883H7.03125ZM12.5728 3.60786L12.0478 4.13286C12.6001 4.87725 12.9602 5.74637 13.0963 6.66321H13.8408C13.6911 5.52339 13.2411 4.47702 12.5728 3.60786ZM2.4251 3.61179C1.75796 4.48034 1.30887 5.5249 1.15948 6.66351H1.90494C2.04405 5.72722 2.41179 4.86562 2.95101 4.1377L2.4251 3.61179ZM1.15948 8.33679C1.30827 9.4751 1.75675 10.5197 2.42359 11.3882L2.94859 10.8623C2.40998 10.1344 2.04375 9.27248 1.90494 8.33649H1.15948V8.33679ZM13.096 8.33679C12.9566 9.27399 12.5879 10.1362 12.0475 10.865L12.5725 11.39C13.2402 10.5209 13.6908 9.47601 13.8405 8.33679H13.096ZM4.13286 12.0478L3.60786 12.5728C4.47671 13.2408 5.52218 13.6911 6.66109 13.8408V13.0957C5.72389 12.9556 4.86079 12.5879 4.13286 12.0478ZM10.8626 12.0493C10.1341 12.5888 9.27248 12.959 8.33528 13.0978V13.8408C9.4745 13.692 10.5191 13.2423 11.3885 12.5752L10.865 12.0493H10.8626Z" fill="#667885"/>
</svg>
