<svg width="17" height="21" viewBox="0 0 17 21" fill="none" xmlns="http://www.w3.org/2000/svg">
<path d="M8.5 10.5C9.08438 10.5 9.58481 10.2942 10.0013 9.8826C10.4171 9.4717 10.625 8.9775 10.625 8.4C10.625 7.8225 10.4171 7.32795 10.0013 6.91635C9.58481 6.50545 9.08438 6.3 8.5 6.3C7.91563 6.3 7.41554 6.50545 6.99975 6.91635C6.58325 7.32795 6.375 7.8225 6.375 8.4C6.375 8.9775 6.58325 9.4717 6.99975 9.8826C7.41554 10.2942 7.91563 10.5 8.5 10.5ZM8.5 18.2175C10.6604 16.2575 12.263 14.4767 13.3078 12.8751C14.3526 11.2742 14.875 9.8525 14.875 8.61C14.875 6.7025 14.2595 5.14045 13.0284 3.92385C11.798 2.70795 10.2885 2.1 8.5 2.1C6.71146 2.1 5.20165 2.70795 3.97056 3.92385C2.74019 5.14045 2.125 6.7025 2.125 8.61C2.125 9.8525 2.6474 11.2742 3.69219 12.8751C4.73698 14.4767 6.33958 16.2575 8.5 18.2175ZM8.5 21C5.64896 18.6025 3.51971 16.3755 2.11225 14.3188C0.704083 12.2629 0 10.36 0 8.61C0 5.985 0.854604 3.89375 2.56381 2.33625C4.27231 0.77875 6.25104 0 8.5 0C10.749 0 12.7277 0.77875 14.4362 2.33625C16.1454 3.89375 17 5.985 17 8.61C17 10.36 16.2963 12.2629 14.8888 14.3188C13.4806 16.3755 11.351 18.6025 8.5 21Z" fill="white"/>
</svg>
