<svg width="21" height="21" viewBox="0 0 21 21" fill="none" xmlns="http://www.w3.org/2000/svg">
<g clip-path="url(#clip0_10_722)">
<path d="M9.56462 2.40654C9.37682 1.71552 8.96685 1.1055 8.39796 0.670598C7.82908 0.235691 7.13289 6.10352e-05 6.41681 6.10352e-05C5.70073 6.10352e-05 5.00454 0.235691 4.43566 0.670598C3.86678 1.1055 3.45681 1.71552 3.269 2.40654H0V4.15654H3.269C3.45681 4.84755 3.86678 5.45757 4.43566 5.89248C5.00454 6.32738 5.70073 6.56301 6.41681 6.56301C7.13289 6.56301 7.82908 6.32738 8.39796 5.89248C8.96685 5.45757 9.37682 4.84755 9.56462 4.15654H21V2.40654H9.56462ZM6.41638 4.81279C6.11352 4.81279 5.81747 4.72298 5.56566 4.55473C5.31385 4.38647 5.11758 4.14732 5.00168 3.86752C4.88579 3.58772 4.85546 3.27984 4.91455 2.98281C4.97363 2.68577 5.11947 2.41293 5.33362 2.19878C5.54777 1.98463 5.82061 1.83879 6.11764 1.77971C6.41468 1.72063 6.72256 1.75095 7.00236 1.86685C7.28216 1.98274 7.52131 2.17901 7.68956 2.43082C7.85782 2.68263 7.94763 2.97868 7.94763 3.28154C7.94693 3.68744 7.78538 4.07651 7.49837 4.36353C7.21135 4.65054 6.82227 4.81209 6.41638 4.81279Z" fill="#526675"/>
<path d="M14.5836 7.21875C13.8683 7.22131 13.1734 7.45789 12.6051 7.89237C12.0368 8.32685 11.6263 8.93535 11.4362 9.625H0V11.375H11.4362C11.6237 12.0662 12.0335 12.6764 12.6024 13.1115C13.1712 13.5466 13.8675 13.7823 14.5836 13.7823C15.2998 13.7823 15.996 13.5466 16.5649 13.1115C17.1337 12.6764 17.5435 12.0662 17.731 11.375H21V9.625H17.731C17.5409 8.93535 17.1304 8.32685 16.5621 7.89237C15.9938 7.45789 15.299 7.22131 14.5836 7.21875ZM14.5836 12.0313C14.2808 12.0313 13.9847 11.9414 13.7329 11.7732C13.4811 11.6049 13.2848 11.3658 13.1689 11.086C13.053 10.8062 13.0227 10.4983 13.0818 10.2013C13.1409 9.90423 13.2867 9.63139 13.5009 9.41724C13.715 9.20309 13.9879 9.05726 14.2849 8.99817C14.5819 8.93909 14.8898 8.96941 15.1696 9.08531C15.4494 9.20121 15.6886 9.39747 15.8568 9.64928C16.0251 9.9011 16.1149 10.1971 16.1149 10.5C16.1144 10.906 15.9529 11.2952 15.6659 11.5822C15.3788 11.8693 14.9896 12.0308 14.5836 12.0313Z" fill="#526675"/>
<path d="M6.41638 14.4375C5.70057 14.4395 5.00511 14.6758 4.43628 15.1103C3.86746 15.5448 3.45655 16.1537 3.26638 16.8437H0V18.5937H3.269C3.45681 19.2848 3.86678 19.8948 4.43566 20.3297C5.00454 20.7646 5.70073 21.0002 6.41681 21.0002C7.13289 21.0002 7.82908 20.7646 8.39796 20.3297C8.96685 19.8948 9.37682 19.2848 9.56462 18.5937H21V16.8437H9.56462C9.37453 16.154 8.96389 15.5453 8.39541 15.1109C7.82694 14.6764 7.13188 14.4399 6.41638 14.4375ZM6.41638 19.25C6.11352 19.25 5.81747 19.1602 5.56566 18.9919C5.31385 18.8237 5.11758 18.5845 5.00168 18.3047C4.88579 18.0249 4.85546 17.717 4.91455 17.42C4.97363 17.123 5.11947 16.8501 5.33362 16.636C5.54777 16.4218 5.82061 16.276 6.11764 16.2169C6.41468 16.1578 6.72256 16.1882 7.00236 16.3041C7.28216 16.42 7.52131 16.6162 7.68956 16.868C7.85782 17.1198 7.94763 17.4159 7.94763 17.7187C7.94693 18.1246 7.78538 18.5137 7.49837 18.8007C7.21135 19.0877 6.82227 19.2493 6.41638 19.25Z" fill="#526675"/>
</g>
<defs>
<clipPath id="clip0_10_722">
<rect width="21" height="21" fill="white"/>
</clipPath>
</defs>
</svg>
