<svg width="19" height="20" viewBox="0 0 19 20" fill="none" xmlns="http://www.w3.org/2000/svg">
<path d="M2.23413 3.4655H4.08185V6.06463H13.3205V3.4655H15.1682V7.79738H17.0159V3.4655C17.0159 2.51249 16.1844 1.73275 15.1682 1.73275H11.3064C10.9184 0.727755 9.90217 0 8.70115 0C7.50014 0 6.48389 0.727755 6.09587 1.73275H2.23413C1.21789 1.73275 0.386414 2.51249 0.386414 3.4655V15.5948C0.386414 16.5478 1.21789 17.3275 2.23413 17.3275H6.85343V15.5948H2.23413V3.4655ZM8.70115 1.73275C9.20928 1.73275 9.62501 2.12262 9.62501 2.59913C9.62501 3.07563 9.20928 3.4655 8.70115 3.4655C8.19303 3.4655 7.77729 3.07563 7.77729 2.59913C7.77729 2.12262 8.19303 1.73275 8.70115 1.73275Z" fill="#2E61E5"/>
<path d="M16.3692 15.5081C16.7388 14.9017 17.0159 14.2086 17.0159 13.4288C17.0159 11.2629 15.1682 9.53015 12.8585 9.53015C10.5489 9.53015 8.70117 11.2629 8.70117 13.4288C8.70117 15.5948 10.5489 17.3275 12.8585 17.3275C13.69 17.3275 14.4291 17.0676 15.0758 16.7211L17.5702 19.0603L18.8636 17.8474L16.3692 15.5081ZM12.8585 15.5948C11.5651 15.5948 10.5489 14.6418 10.5489 13.4288C10.5489 12.2159 11.5651 11.2629 12.8585 11.2629C14.1519 11.2629 15.1682 12.2159 15.1682 13.4288C15.1682 14.6418 14.1519 15.5948 12.8585 15.5948Z" fill="#2E61E5"/>
</svg>
